<?xml version="1.0" encoding="UTF-8"?>
<svg xmlns="http://www.w3.org/2000/svg" xmlns:xlink="http://www.w3.org/1999/xlink" width="195px" height="56px" viewBox="0 0 194 56" version="1.1">
<defs>
<filter id="alpha" filterUnits="objectBoundingBox" x="0%" y="0%" width="100%" height="100%">
  <feColorMatrix type="matrix" in="SourceGraphic" values="0 0 0 0 1 0 0 0 0 1 0 0 0 0 1 0 0 0 1 0"/>
</filter>
<mask id="mask0">
  <g filter="url(#alpha)">
<rect x="0" y="0" width="194" height="56" style="fill-opacity:0.921569;stroke:none;"/>
  </g>
</mask>
<clipPath id="clip1">
  <rect x="0" y="0" width="194" height="56"/>
</clipPath>
<g id="surface5" clip-path="url(#clip1)">
<path style=" stroke:none;fill-rule:evenodd;fill-opacity:1;" d="M 43.851562 10.457031 C 44.113281 10.457031 44.375 10.457031 44.636719 10.457031 C 44.792969 11.589844 44.898438 12.730469 44.945312 13.867188 C 43.652344 12.894531 42.386719 11.890625 41.148438 10.851562 C 42.0625 10.726562 42.964844 10.59375 43.851562 10.457031 Z M 43.851562 10.457031 "/>
</g>
<mask id="mask1">
  <g filter="url(#alpha)">
<rect x="0" y="0" width="194" height="56" style="fill-opacity:0.952941;stroke:none;"/>
  </g>
</mask>
<clipPath id="clip2">
  <rect x="0" y="0" width="194" height="56"/>
</clipPath>
<g id="surface8" clip-path="url(#clip2)">
<path style=" stroke:none;fill-rule:evenodd;fill-opacity:1;" d="M 37.570312 11.15625 C 37.695312 11.175781 37.808594 11.21875 37.917969 11.289062 C 39.109375 12.25 40.304688 13.210938 41.496094 14.175781 C 40.03125 14.429688 38.546875 14.621094 37.046875 14.742188 C 36.78125 14.765625 36.546875 14.695312 36.347656 14.523438 C 35.195312 13.613281 34.0625 12.679688 32.945312 11.726562 C 34.5 11.554688 36.042969 11.367188 37.570312 11.15625 Z M 37.570312 11.15625 "/>
</g>
<mask id="mask2">
  <g filter="url(#alpha)">
<rect x="0" y="0" width="194" height="56" style="fill-opacity:0.94902;stroke:none;"/>
  </g>
</mask>
<clipPath id="clip3">
  <rect x="0" y="0" width="194" height="56"/>
</clipPath>
<g id="surface11" clip-path="url(#clip3)">
<path style=" stroke:none;fill-rule:evenodd;fill-opacity:1;" d="M 28.058594 12.207031 C 28.378906 12.191406 28.699219 12.207031 29.015625 12.25 C 30.238281 13.242188 31.460938 14.234375 32.683594 15.226562 C 30.972656 15.460938 29.253906 15.605469 27.535156 15.664062 C 26.351562 14.707031 25.1875 13.726562 24.042969 12.730469 C 25.390625 12.535156 26.730469 12.359375 28.058594 12.207031 Z M 28.058594 12.207031 "/>
</g>
<mask id="mask3">
  <g filter="url(#alpha)">
<rect x="0" y="0" width="194" height="56" style="fill-opacity:0.972549;stroke:none;"/>
  </g>
</mask>
<clipPath id="clip4">
  <rect x="0" y="0" width="194" height="56"/>
</clipPath>
<g id="surface14" clip-path="url(#clip4)">
<path style=" stroke:none;fill-rule:evenodd;fill-opacity:1;" d="M 20.027344 13.082031 C 20.207031 13.066406 20.378906 13.082031 20.550781 13.125 C 21.824219 14.050781 23.046875 15.042969 24.21875 16.101562 C 23.933594 16.191406 23.640625 16.25 23.34375 16.273438 C 23.65625 16.410156 23.976562 16.527344 24.304688 16.625 C 22.851562 17.382812 21.394531 18.140625 19.941406 18.898438 C 20.964844 19.242188 21.996094 19.546875 23.039062 19.820312 C 24.507812 19.164062 25.949219 18.449219 27.359375 17.675781 C 29 18.066406 30.628906 18.535156 32.246094 19.074219 C 30.878906 19.878906 29.480469 20.636719 28.058594 21.351562 C 29.257812 21.796875 30.480469 22.191406 31.722656 22.53125 C 33.203125 21.765625 34.699219 21.039062 36.21875 20.34375 C 37.738281 20.753906 39.234375 21.234375 40.710938 21.789062 C 39.328125 22.523438 37.960938 23.28125 36.609375 24.0625 C 37.609375 24.386719 38.613281 24.691406 39.621094 24.980469 C 41.054688 24.226562 42.492188 23.511719 43.941406 22.835938 C 41.722656 30.09375 39.46875 37.339844 37.175781 44.582031 C 36.808594 45.144531 36.285156 45.464844 35.605469 45.542969 C 27.511719 43.125 19.4375 40.628906 11.386719 38.0625 C 10.691406 37.542969 10.53125 36.886719 10.910156 36.09375 C 12.984375 29.292969 15.078125 22.496094 17.191406 15.707031 C 17.160156 14.949219 17.113281 14.191406 17.0625 13.429688 C 18.066406 13.359375 19.054688 13.242188 20.027344 13.082031 Z M 17.585938 26.207031 C 21.566406 27.390625 25.523438 28.644531 29.453125 29.96875 C 29.210938 30.628906 29.003906 31.300781 28.84375 31.980469 C 24.90625 30.8125 20.976562 29.601562 17.0625 28.351562 C 17.019531 28.3125 16.992188 28.269531 16.972656 28.21875 C 17.195312 27.550781 17.398438 26.882812 17.585938 26.207031 Z M 16.625 29.445312 C 23.1875 31.527344 29.761719 33.582031 36.347656 35.613281 C 36.253906 35.828125 36.167969 36.046875 36.085938 36.269531 C 29.503906 34.269531 22.929688 32.242188 16.363281 30.1875 C 16.445312 29.9375 16.53125 29.6875 16.625 29.445312 Z M 30.5 30.230469 C 32.753906 30.871094 34.992188 31.558594 37.21875 32.289062 C 37.261719 32.324219 37.289062 32.367188 37.308594 32.417969 C 37.109375 33.105469 36.875 33.777344 36.609375 34.429688 C 34.402344 33.738281 32.191406 33.050781 29.976562 32.375 C 29.9375 32.339844 29.90625 32.296875 29.890625 32.242188 C 30.113281 31.578125 30.316406 30.90625 30.5 30.230469 Z M 16.015625 31.457031 C 22.617188 33.472656 29.222656 35.5 35.824219 37.539062 C 35.734375 37.71875 35.660156 37.910156 35.605469 38.105469 C 35.558594 38.152344 35.5 38.179688 35.429688 38.195312 C 28.964844 36.179688 22.492188 34.179688 16.015625 32.199219 C 15.925781 32.15625 15.867188 32.082031 15.839844 31.980469 C 15.882812 31.796875 15.9375 31.621094 16.015625 31.457031 Z M 15.402344 33.46875 C 21.9375 35.519531 28.484375 37.546875 35.039062 39.550781 C 35.078125 39.585938 35.109375 39.628906 35.125 39.679688 C 34.960938 40.328125 34.726562 40.941406 34.429688 41.519531 C 27.871094 39.511719 21.324219 37.46875 14.792969 35.394531 C 14.96875 34.742188 15.171875 34.101562 15.402344 33.46875 Z M 15.402344 33.46875 "/>
</g>
<mask id="mask4">
  <g filter="url(#alpha)">
<rect x="0" y="0" width="194" height="56" style="fill-opacity:0.945098;stroke:none;"/>
  </g>
</mask>
<clipPath id="clip5">
  <rect x="0" y="0" width="194" height="56"/>
</clipPath>
<g id="surface17" clip-path="url(#clip5)">
<path style=" stroke:none;fill-rule:evenodd;fill-opacity:1;" d="M 73.785156 16.84375 C 76.199219 16.710938 77.144531 17.816406 76.621094 20.167969 C 76.207031 21.085938 75.496094 21.523438 74.484375 21.480469 C 73.324219 21.488281 72.582031 20.9375 72.257812 19.820312 C 72.011719 18.414062 72.523438 17.421875 73.785156 16.84375 Z M 73.785156 16.84375 "/>
</g>
<mask id="mask5">
  <g filter="url(#alpha)">
<rect x="0" y="0" width="194" height="56" style="fill-opacity:0.960784;stroke:none;"/>
  </g>
</mask>
<clipPath id="clip6">
  <rect x="0" y="0" width="194" height="56"/>
</clipPath>
<g id="surface20" clip-path="url(#clip6)">
<path style=" stroke:none;fill-rule:evenodd;fill-opacity:1;" d="M 63.925781 17.980469 C 66.050781 17.800781 67.914062 18.398438 69.511719 19.773438 C 69.734375 19.957031 69.910156 20.175781 70.035156 20.429688 C 69.394531 21.273438 68.699219 22.058594 67.9375 22.792969 C 66.175781 21.03125 64.167969 20.695312 61.917969 21.789062 C 60.882812 22.652344 60.199219 23.746094 59.867188 25.070312 C 59.386719 27.292969 59.269531 29.539062 59.519531 31.804688 C 59.65625 33.246094 60.09375 34.589844 60.828125 35.832031 C 62.230469 37.375 63.960938 37.914062 66.019531 37.449219 C 66.949219 37.1875 67.878906 36.984375 68.8125 36.835938 C 69.136719 37.699219 69.429688 38.574219 69.683594 39.460938 C 69.535156 39.671875 69.332031 39.816406 69.074219 39.898438 C 66.765625 40.664062 64.410156 40.898438 62.003906 40.601562 C 59.324219 40.140625 57.390625 38.695312 56.203125 36.269531 C 55.339844 34.144531 54.945312 31.925781 55.023438 29.617188 C 54.871094 26.414062 55.726562 23.527344 57.597656 20.957031 C 59.296875 19.082031 61.40625 18.089844 63.925781 17.980469 Z M 63.925781 17.980469 "/>
</g>
<mask id="mask6">
  <g filter="url(#alpha)">
<rect x="0" y="0" width="194" height="56" style="fill-opacity:0.960784;stroke:none;"/>
  </g>
</mask>
<clipPath id="clip7">
  <rect x="0" y="0" width="194" height="56"/>
</clipPath>
<g id="surface23" clip-path="url(#clip7)">
<path style=" stroke:none;fill-rule:evenodd;fill-opacity:1;" d="M 105.464844 23.667969 C 106.910156 23.640625 108.277344 23.949219 109.566406 24.585938 C 111.480469 26.152344 111.960938 28.09375 111.007812 30.40625 C 110.011719 31.957031 108.628906 33.019531 106.863281 33.601562 C 105.335938 34.113281 103.761719 34.378906 102.148438 34.386719 C 102.53125 37.21875 104.128906 38.359375 106.949219 37.800781 C 108.113281 37.546875 109.246094 37.222656 110.351562 36.835938 C 110.695312 37.585938 111.015625 38.34375 111.3125 39.113281 C 111.300781 39.179688 111.269531 39.238281 111.226562 39.289062 C 108.863281 40.488281 106.363281 40.957031 103.71875 40.6875 C 101.730469 40.457031 100.203125 39.507812 99.136719 37.84375 C 98.160156 35.769531 97.808594 33.582031 98.089844 31.28125 C 98.574219 26.785156 101.03125 24.25 105.464844 23.667969 Z M 105.117188 26.46875 C 106.941406 26.332031 107.742188 27.175781 107.515625 29.007812 C 107.089844 30.160156 106.289062 30.933594 105.117188 31.324219 C 104.117188 31.625 103.097656 31.8125 102.0625 31.894531 C 102.074219 30.621094 102.320312 29.394531 102.804688 28.21875 C 103.273438 27.21875 104.042969 26.636719 105.117188 26.46875 Z M 105.117188 26.46875 "/>
</g>
<mask id="mask7">
  <g filter="url(#alpha)">
<rect x="0" y="0" width="194" height="56" style="fill-opacity:0.960784;stroke:none;"/>
  </g>
</mask>
<clipPath id="clip8">
  <rect x="0" y="0" width="194" height="56"/>
</clipPath>
<g id="surface26" clip-path="url(#clip8)">
<path style=" stroke:none;fill-rule:evenodd;fill-opacity:1;" d="M 138.015625 23.667969 C 139.460938 23.65625 140.824219 23.964844 142.117188 24.585938 C 143.554688 25.699219 144.179688 27.171875 143.996094 29.007812 C 143.734375 30.261719 143.109375 31.296875 142.117188 32.113281 C 139.902344 33.675781 137.429688 34.417969 134.699219 34.34375 C 134.917969 36.9375 136.3125 38.121094 138.890625 37.886719 C 140.226562 37.679688 141.523438 37.316406 142.773438 36.792969 C 143.191406 37.539062 143.554688 38.324219 143.863281 39.15625 C 143.691406 39.328125 143.488281 39.460938 143.253906 39.550781 C 140.855469 40.636719 138.351562 40.984375 135.746094 40.601562 C 132.867188 39.867188 131.191406 38.015625 130.730469 35.042969 C 130.535156 33.347656 130.5625 31.65625 130.816406 29.96875 C 131.75 26.171875 134.152344 24.070312 138.015625 23.667969 Z M 137.582031 26.46875 C 139.585938 26.335938 140.386719 27.242188 139.980469 29.179688 C 139.492188 30.191406 138.722656 30.90625 137.667969 31.324219 C 136.667969 31.609375 135.648438 31.796875 134.613281 31.894531 C 134.613281 30.480469 134.917969 29.140625 135.53125 27.867188 C 135.773438 27.535156 136.050781 27.230469 136.359375 26.949219 C 136.765625 26.761719 137.171875 26.601562 137.582031 26.46875 Z M 137.582031 26.46875 "/>
</g>
<mask id="mask8">
  <g filter="url(#alpha)">
<rect x="0" y="0" width="194" height="56" style="fill-opacity:0.960784;stroke:none;"/>
  </g>
</mask>
<clipPath id="clip9">
  <rect x="0" y="0" width="194" height="56"/>
</clipPath>
<g id="surface29" clip-path="url(#clip9)">
<path style=" stroke:none;fill-rule:evenodd;fill-opacity:1;" d="M 178.945312 23.667969 C 180.390625 23.640625 181.757812 23.945312 183.046875 24.585938 C 184.34375 25.507812 184.984375 26.777344 184.96875 28.394531 C 184.785156 30.460938 183.769531 31.964844 181.914062 32.898438 C 179.972656 33.914062 177.910156 34.394531 175.71875 34.34375 C 175.882812 36.980469 177.277344 38.160156 179.90625 37.886719 C 181.226562 37.660156 182.503906 37.292969 183.746094 36.792969 C 184.121094 37.46875 184.457031 38.167969 184.75 38.894531 C 184.808594 39.011719 184.808594 39.128906 184.75 39.242188 C 181.71875 40.863281 178.5625 41.171875 175.28125 40.164062 C 173.832031 39.464844 172.796875 38.371094 172.183594 36.882812 C 171.347656 34.207031 171.316406 31.523438 172.09375 28.832031 C 173.347656 25.71875 175.628906 24 178.945312 23.667969 Z M 178.597656 26.46875 C 180.140625 26.265625 180.984375 26.9375 181.128906 28.480469 C 180.828125 29.902344 179.984375 30.851562 178.597656 31.324219 C 177.597656 31.628906 176.582031 31.816406 175.542969 31.894531 C 175.507812 30.222656 175.957031 28.707031 176.894531 27.34375 C 177.394531 26.898438 177.960938 26.605469 178.597656 26.46875 Z M 178.597656 26.46875 "/>
</g>
<mask id="mask9">
  <g filter="url(#alpha)">
<rect x="0" y="0" width="194" height="56" style="fill-opacity:0.960784;stroke:none;"/>
  </g>
</mask>
<clipPath id="clip10">
  <rect x="0" y="0" width="194" height="56"/>
</clipPath>
<g id="surface32" clip-path="url(#clip10)">
<path style=" stroke:none;fill-rule:evenodd;fill-opacity:1;" d="M 162.976562 23.757812 C 165.085938 23.597656 167.078125 24.007812 168.953125 24.980469 C 168.96875 25.054688 168.984375 25.128906 168.996094 25.199219 C 168.6875 26.074219 168.292969 26.902344 167.820312 27.695312 C 166.648438 27.167969 165.425781 26.816406 164.152344 26.644531 C 162.671875 26.609375 162.089844 27.3125 162.410156 28.742188 C 162.800781 29.488281 163.367188 30.054688 164.109375 30.449219 C 165.460938 30.910156 166.710938 31.550781 167.863281 32.375 C 169.402344 33.949219 169.765625 35.773438 168.953125 37.84375 C 168.042969 39.542969 166.632812 40.519531 164.722656 40.773438 C 162.226562 41.011719 159.898438 40.5 157.738281 39.242188 C 158.015625 38.574219 158.292969 37.902344 158.570312 37.230469 C 158.6875 36.9375 158.847656 36.675781 159.046875 36.445312 C 160.160156 37.042969 161.324219 37.527344 162.539062 37.886719 C 163.15625 37.960938 163.765625 37.933594 164.371094 37.800781 C 165.230469 37.464844 165.5625 36.835938 165.375 35.917969 C 165.1875 35.175781 164.765625 34.609375 164.109375 34.210938 C 162.699219 33.679688 161.359375 33.007812 160.097656 32.199219 C 158.375 30.632812 157.925781 28.75 158.742188 26.554688 C 159.730469 24.96875 161.140625 24.035156 162.976562 23.757812 Z M 162.976562 23.757812 "/>
</g>
<mask id="mask10">
  <g filter="url(#alpha)">
<rect x="0" y="0" width="194" height="56" style="fill-opacity:0.956863;stroke:none;"/>
  </g>
</mask>
<clipPath id="clip11">
  <rect x="0" y="0" width="194" height="56"/>
</clipPath>
<g id="surface35" clip-path="url(#clip11)">
<path style=" stroke:none;fill-rule:evenodd;fill-opacity:1;" d="M 89.234375 23.84375 C 93.085938 23.578125 95.019531 25.386719 95.035156 29.269531 C 95.09375 33.003906 95.09375 36.734375 95.035156 40.46875 C 93.757812 40.585938 92.476562 40.585938 91.195312 40.46875 C 91.167969 36.617188 91.136719 32.769531 91.109375 28.917969 C 90.742188 27.152344 89.707031 26.582031 88.011719 27.210938 C 86.238281 28.214844 85.320312 29.746094 85.261719 31.804688 C 85.234375 34.695312 85.203125 37.582031 85.175781 40.46875 C 83.945312 40.570312 82.707031 40.585938 81.464844 40.511719 C 81.394531 37.558594 81.351562 34.597656 81.335938 31.632812 C 81.34375 29.886719 81.054688 28.195312 80.460938 26.554688 C 80.3125 26.109375 80.09375 25.699219 79.808594 25.332031 C 79.847656 25.246094 79.90625 25.171875 79.984375 25.113281 C 80.941406 24.808594 81.871094 24.441406 82.773438 24.019531 C 83.042969 24.289062 83.289062 24.582031 83.515625 24.894531 C 83.90625 25.65625 84.226562 26.445312 84.476562 27.257812 C 85.519531 25.355469 87.105469 24.21875 89.234375 23.84375 Z M 89.234375 23.84375 "/>
</g>
<mask id="mask11">
  <g filter="url(#alpha)">
<rect x="0" y="0" width="194" height="56" style="fill-opacity:0.952941;stroke:none;"/>
  </g>
</mask>
<clipPath id="clip12">
  <rect x="0" y="0" width="194" height="56"/>
</clipPath>
<g id="surface38" clip-path="url(#clip12)">
<path style=" stroke:none;fill-rule:evenodd;fill-opacity:1;" d="M 154.074219 23.929688 C 155.054688 23.867188 156.011719 23.96875 156.953125 24.238281 C 157 24.285156 157.027344 24.34375 157.042969 24.414062 C 156.71875 25.652344 156.34375 26.863281 155.90625 28.042969 C 153.839844 27.308594 152.371094 27.949219 151.5 29.96875 C 151.394531 30.253906 151.308594 30.546875 151.238281 30.84375 C 151.222656 34.050781 151.179688 37.261719 151.105469 40.46875 C 149.859375 40.570312 148.609375 40.582031 147.355469 40.511719 C 147.304688 37.03125 147.230469 33.546875 147.136719 30.054688 C 147.058594 28.347656 146.582031 26.773438 145.695312 25.332031 C 145.808594 25.1875 145.953125 25.085938 146.132812 25.023438 C 146.988281 24.675781 147.847656 24.339844 148.707031 24.019531 C 149.464844 24.949219 149.988281 26 150.277344 27.167969 C 150.738281 26.035156 151.480469 25.144531 152.503906 24.5 C 153 24.203125 153.523438 24.011719 154.074219 23.929688 Z M 154.074219 23.929688 "/>
</g>
<mask id="mask12">
  <g filter="url(#alpha)">
<rect x="0" y="0" width="194" height="56" style="fill-opacity:0.960784;stroke:none;"/>
  </g>
</mask>
<clipPath id="clip13">
  <rect x="0" y="0" width="194" height="56"/>
</clipPath>
<g id="surface41" clip-path="url(#clip13)">
<path style=" stroke:none;fill-rule:evenodd;fill-opacity:1;" d="M 72.652344 24.105469 C 73.902344 24.105469 75.152344 24.105469 76.40625 24.105469 C 76.390625 28.304688 76.40625 32.507812 76.449219 36.707031 C 76.453125 37.050781 76.554688 37.355469 76.753906 37.625 C 77.238281 37.746094 77.730469 37.792969 78.238281 37.757812 C 78.328125 38.476562 78.445312 39.191406 78.585938 39.898438 C 78.558594 40.003906 78.527344 40.105469 78.5 40.207031 C 78.058594 40.417969 77.589844 40.550781 77.101562 40.601562 C 75.554688 40.929688 74.257812 40.503906 73.21875 39.332031 C 72.875 38.765625 72.671875 38.152344 72.609375 37.492188 C 72.535156 33.023438 72.550781 28.5625 72.652344 24.105469 Z M 72.652344 24.105469 "/>
</g>
<mask id="mask13">
  <g filter="url(#alpha)">
<rect x="0" y="0" width="194" height="56" style="fill-opacity:0.960784;stroke:none;"/>
  </g>
</mask>
<clipPath id="clip14">
  <rect x="0" y="0" width="194" height="56"/>
</clipPath>
<g id="surface44" clip-path="url(#clip14)">
<path style=" stroke:none;fill-rule:evenodd;fill-opacity:1;" d="M 114.28125 24.105469 C 115.558594 24.105469 116.839844 24.105469 118.121094 24.105469 C 118.078125 28.105469 118.125 32.101562 118.25 36.09375 C 118.46875 37.378906 119.210938 37.992188 120.476562 37.929688 C 121.542969 37.695312 122.3125 37.082031 122.789062 36.09375 C 123.675781 34.03125 124.109375 31.871094 124.097656 29.617188 C 124.15625 28.714844 124.15625 27.808594 124.097656 26.90625 C 123.988281 25.976562 123.917969 25.042969 123.878906 24.105469 C 125.195312 24.050781 126.488281 24.109375 127.761719 24.28125 C 128.402344 28.234375 128.109375 32.113281 126.890625 35.917969 C 125.925781 38.421875 124.136719 39.953125 121.523438 40.511719 C 120.273438 40.726562 119.023438 40.757812 117.769531 40.601562 C 116.144531 40.195312 115.082031 39.1875 114.585938 37.582031 C 114.441406 37.007812 114.355469 36.421875 114.324219 35.832031 C 114.28125 31.921875 114.265625 28.015625 114.28125 24.105469 Z M 114.28125 24.105469 "/>
</g>
</defs>
<g id="surface1">
<use xlink:href="#surface5" mask="url(#mask0)"/>
<use xlink:href="#surface8" mask="url(#mask1)"/>
<use xlink:href="#surface11" mask="url(#mask2)"/>
<use xlink:href="#surface14" mask="url(#mask3)"/>
<use xlink:href="#surface17" mask="url(#mask4)"/>
<use xlink:href="#surface20" mask="url(#mask5)"/>
<use xlink:href="#surface23" mask="url(#mask6)"/>
<use xlink:href="#surface26" mask="url(#mask7)"/>
<use xlink:href="#surface29" mask="url(#mask8)"/>
<use xlink:href="#surface32" mask="url(#mask9)"/>
<use xlink:href="#surface35" mask="url(#mask10)"/>
<use xlink:href="#surface38" mask="url(#mask11)"/>
<use xlink:href="#surface41" mask="url(#mask12)"/>
<use xlink:href="#surface44" mask="url(#mask13)"/>
</g>
</svg>
